<svg id="Layer_1" enable-background="new 0 0 512 512" height="512" viewBox="0 0 512 512" width="512" xmlns="http://www.w3.org/2000/svg"><g><g><circle cx="256" cy="256" fill="#ffe65a" r="256"/></g><g><path d="m96.031 455.854c43.824 35.124 99.438 56.146 159.969 56.146s116.145-21.021 159.969-56.146z" fill="#965028"/></g><g><g><path d="m343.535 119.368v-34.286h-178.794v34.285c-53.441 33.534-89.397 96.208-89.397 167.995 0 61.082 26.032 115.569 66.717 151.118 12.635 11.04 28.878 17.069 45.657 17.069h132.839c16.779 0 33.022-6.029 45.657-17.069 40.687-35.55 66.718-90.036 66.718-151.118 0-71.786-35.956-134.46-89.397-167.994z" fill="#fff"/></g><g><path d="m102.414 287.362c0-71.786 35.957-134.46 89.397-167.995v-17.001h151.724v-17.284h-178.794v34.285c-53.441 33.534-89.397 96.208-89.397 167.995 0 61.082 26.032 115.569 66.717 151.118 12.635 11.04 28.878 17.069 45.657 17.069h27.07c-16.779 0-33.022-6.029-45.657-17.069-40.685-35.549-66.717-90.036-66.717-151.118z" fill="#afe6ff"/></g><g><g><ellipse cx="182.69" cy="306.364" fill="#d67120" rx="76.405" ry="85.136" transform="matrix(.999 -.046 .046 .999 -13.882 8.717)"/></g></g><g><g><ellipse cx="257.524" cy="367.095" fill="#d67120" rx="76.405" ry="85.136" transform="matrix(.674 -.739 .739 .674 -187.241 309.988)"/></g></g><g><path d="m337.401 44.582h-166.526c-9.803 0-17.75 7.947-17.75 17.75v22.75h202.027v-22.75c0-9.803-7.947-17.75-17.751-17.75z" fill="#fd4755"/></g><g><g><path d="m355.152 70.007h-202.028c-2.858 0-5.175-2.316-5.175-5.175 0-2.857 2.317-5.175 5.175-5.175h202.027c2.857 0 5.175 2.317 5.175 5.175.001 2.858-2.316 5.175-5.174 5.175z" fill="#e33442"/></g></g><g><g><ellipse cx="205.034" cy="358.257" fill="#f6a96c" rx="80.609" ry="89.82" transform="matrix(-.739 -.674 .674 -.739 115.107 761.122)"/></g><g><path d="m172.228 435.125c-32.887-29.993-32.454-84.015.967-120.66 22.391-24.551 53.902-35.049 82.156-30.302-33.003-20.926-79.761-13.329-109.942 19.765-33.421 36.645-33.854 90.666-.967 120.66 10.854 9.898 23.986 15.919 37.906 18.258-3.543-2.248-6.932-4.814-10.12-7.721z" fill="#e6975a"/></g><g><g><ellipse cx="164.205" cy="372.083" fill="#965028" rx="15.205" ry="18.031" transform="matrix(-.739 -.674 .674 -.739 34.797 757.651)"/></g><g><ellipse cx="236.135" cy="377.332" fill="#965028" rx="15.204" ry="18.031" transform="matrix(-.977 -.214 .214 -.977 386.074 796.447)"/></g><g><ellipse cx="205.272" cy="312.129" fill="#965028" rx="15.2" ry="18.027" transform="matrix(-.41 -.912 .912 -.41 4.757 627.335)"/></g></g></g><g><g><ellipse cx="337.68" cy="312.018" fill="#f6a96c" rx="80.609" ry="89.821" transform="matrix(-.739 -.674 .674 -.739 376.917 770.105)"/></g><g><path d="m304.861 388.91c-32.887-29.993-32.454-84.015.967-120.66 22.391-24.551 53.902-35.049 82.156-30.302-33.003-20.926-79.762-13.329-109.942 19.764-33.421 36.646-33.854 90.666-.967 120.66 10.854 9.899 23.985 15.919 37.906 18.258-3.543-2.247-6.932-4.813-10.12-7.72z" fill="#e6975a"/></g><g><g><ellipse cx="296.851" cy="325.844" fill="#965028" rx="15.205" ry="18.032" transform="matrix(-.739 -.674 .674 -.739 296.599 766.632)"/></g><g><ellipse cx="368.74" cy="331.097" fill="#965028" rx="15.204" ry="18.031" transform="matrix(-.977 -.214 .214 -.977 658.103 733.42)"/></g><g><ellipse cx="337.935" cy="265.963" fill="#965028" rx="15.201" ry="18.026" transform="matrix(-.41 -.912 .912 -.41 233.924 683.237)"/></g></g></g><g><path d="m338.133 322.35h-163.22c-10.715 0-19.401-8.687-19.401-19.401v-67.9c0-10.715 8.686-19.4 19.401-19.4h163.22c10.715 0 19.401 8.686 19.401 19.4v67.9c0 10.715-8.686 19.401-19.401 19.401z" fill="#50555a"/></g><g><path d="m174.98 302.949v-67.9c0-10.715 8.686-19.4 19.401-19.4h-19.468c-10.715 0-19.401 8.686-19.401 19.4v67.9c0 10.715 8.686 19.401 19.401 19.401h19.468c-10.714 0-19.401-8.686-19.401-19.401z" fill="#373c41"/></g><g><g><path d="m182.69 274.681v-12.479c0-3.83 1.043-6.64 3.131-8.429 2.087-1.789 4.81-2.685 8.169-2.685 3.453 0 6.286.832 8.499 2.495 2.213 1.664 3.32 3.955 3.32 6.875 0 1.351-.283 2.269-.848 2.754-.565.487-1.507.73-2.825.73-2.354 0-3.578-.737-3.672-2.213-.094-2.825-1.491-4.238-4.191-4.238-2.825 0-4.237 1.57-4.237 4.709v12.479c0 3.139 1.428 4.708 4.285 4.708.878 0 1.608-.143 2.189-.425.581-.281.996-.714 1.248-1.295.251-.58.416-1.06.495-1.436.078-.377.148-.896.212-1.554.125-1.477 1.333-2.214 3.625-2.214 1.349 0 2.307.243 2.872.729.565.487.848 1.405.848 2.754 0 3.046-1.106 5.446-3.32 7.204-2.213 1.759-5.046 2.637-8.499 2.637-3.359 0-6.082-.895-8.169-2.684-2.089-1.784-3.132-4.592-3.132-8.422z" fill="#fff"/></g><g><path d="m209.152 274.681v-12.479c0-3.83 1.051-6.64 3.155-8.429 2.103-1.789 4.896-2.685 8.381-2.685 3.515 0 6.325.896 8.428 2.685s3.155 4.599 3.155 8.429v12.479c0 3.83-1.052 6.639-3.155 8.428-2.104 1.789-4.913 2.684-8.428 2.684-3.484 0-6.278-.895-8.381-2.684-2.104-1.79-3.155-4.598-3.155-8.428zm7.345 0c0 3.139 1.396 4.708 4.19 4.708 2.825 0 4.238-1.569 4.238-4.708v-12.479c0-3.139-1.413-4.709-4.238-4.709-2.794 0-4.19 1.57-4.19 4.709z" fill="#fff"/></g><g><path d="m236.602 274.681v-12.479c0-3.83 1.051-6.64 3.155-8.429 2.103-1.789 4.896-2.685 8.381-2.685 3.515 0 6.325.896 8.428 2.685s3.154 4.599 3.154 8.429v12.479c0 3.83-1.052 6.639-3.154 8.428-2.104 1.789-4.914 2.684-8.428 2.684-3.484 0-6.278-.895-8.381-2.684-2.104-1.79-3.155-4.598-3.155-8.428zm7.345 0c0 3.139 1.396 4.708 4.19 4.708 2.825 0 4.238-1.569 4.238-4.708v-12.479c0-3.139-1.413-4.709-4.238-4.709-2.794 0-4.19 1.57-4.19 4.709z" fill="#fff"/></g><g><path d="m264.428 283.25v-29.945c0-.723.36-1.271 1.084-1.647.721-.377 1.584-.565 2.59-.565 1.004 0 1.866.188 2.588.565.723.376 1.084.926 1.084 1.647v11.301l8.805-12.479c.471-.689 1.113-1.036 1.93-1.036.973 0 1.938.4 2.896 1.2.957.802 1.436 1.656 1.436 2.566 0 .503-.158.974-.471 1.413l-7.723 9.699 9.748 14.926c.25.408.375.815.375 1.225 0 .91-.471 1.75-1.412 2.52s-1.946 1.152-3.014 1.152c-1.13 0-1.978-.454-2.542-1.364l-8.052-12.242-1.979 2.543v8.521c0 .723-.36 1.279-1.082 1.671-.723.395-1.586.59-2.59.59s-1.867-.195-2.59-.59c-.72-.392-1.081-.949-1.081-1.671z" fill="#fff"/></g><g><path d="m291.078 283.25v-29.945c0-.723.359-1.271 1.083-1.647.722-.377 1.585-.565 2.59-.565 1.004 0 1.867.188 2.589.565.722.376 1.083.926 1.083 1.647v29.945c0 .723-.361 1.279-1.083 1.671-.722.395-1.585.59-2.589.59-1.005 0-1.868-.195-2.59-.59-.723-.392-1.083-.949-1.083-1.671z" fill="#fff"/></g><g><path d="m303.508 283.25v-29.898c0-.723.313-1.278.942-1.671.627-.394 1.381-.59 2.26-.59h16.762c.723 0 1.271.314 1.648.941.377.629.564 1.366.564 2.213 0 .911-.195 1.68-.588 2.309-.393.628-.934.94-1.625.94h-12.619v7.958h7.063c.69 0 1.231.282 1.624.847s.589 1.241.589 2.025c0 .722-.188 1.365-.565 1.93s-.926.849-1.647.849h-7.063v8.005h12.619c.69 0 1.232.313 1.625.94s.588 1.397.588 2.309c0 .847-.188 1.585-.564 2.213s-.926.941-1.648.941h-16.763c-.879 0-1.632-.195-2.26-.59-.628-.392-.942-.949-.942-1.671z" fill="#fff"/></g></g><g><g><path d="m246.273 162.76c-.001 0 .001 0 0 0-2.534 0-4.958-.817-7.204-2.429-4.179-2.996-4.876-6.682-4.726-9.247.883-15.044 34.979-34.62 41.806-38.392 1.217-.671 2.72-.518 3.774.382 1.056.901 1.442 2.363.97 3.667-1.705 4.711-17.164 46.019-34.62 46.019zm24.773-39.326c-13.729 8.569-29.624 20.759-30.051 28.041-.053.911.121 2.125 1.957 3.441 1.107.794 2.193 1.18 3.321 1.18 7.658 0 17.947-16.992 24.773-32.662z" fill="#acb9c1"/></g><g><path d="m322.134 144.543c-.001 0-.002 0-.003 0-15.598-.004-43.547-23.708-46.683-26.411-1.052-.906-1.431-2.369-.952-3.672s1.715-2.172 3.103-2.183h.29c7.178 0 43.466.638 53.072 13.231 2.413 3.163 3.117 6.917 2.037 10.857-1.445 5.273-5.304 8.178-10.864 8.178zm-34.742-25.313c10.436 8.03 26.173 18.648 34.74 18.65h.003c2.547 0 3.791-.919 4.438-3.276.531-1.939.242-3.545-.909-5.055-5.136-6.733-23.947-9.492-38.272-10.319z" fill="#acb9c1"/></g><g><path d="m274.419 182.365c-.057 0-.114-.001-.171-.004-1.838-.093-3.252-1.658-3.159-3.496l3.207-63.426c.078-1.553 1.221-2.845 2.753-3.113 1.53-.264 3.046.56 3.646 1.993l17.624 42.016c.712 1.697-.087 3.649-1.783 4.361-1.695.711-3.649-.086-4.361-1.784l-11.964-28.521-2.468 48.811c-.09 1.781-1.561 3.163-3.324 3.163z" fill="#acb9c1"/></g></g><g enable-background="new" opacity=".24"><path d="m164.741 108.058v11.31c-53.441 33.534-89.397 96.208-89.397 167.995 0 22.276 3.476 43.667 9.849 63.59 16.064 9.662 34.379 15.143 53.825 15.143 63.579 0 115.12-58.497 115.12-130.657 0-62.125-38.202-114.119-89.397-127.381z" fill="#fff"/></g><g><path d="m346.869 118.94h-182.35c-1.84 0-3.332-1.492-3.332-3.332s1.492-3.332 3.332-3.332h182.35c1.84 0 3.331 1.492 3.331 3.332s-1.491 3.332-3.331 3.332z" fill="#acb9c1"/></g></g><g><g><ellipse cx="386.055" cy="422.36" fill="#f6a96c" rx="76.405" ry="85.137" transform="matrix(-.739 -.674 .674 -.739 386.676 994.572)"/></g><g><path d="m354.92 495.232c-31.172-28.429-30.761-79.633.917-114.367 21.223-23.27 51.091-33.222 77.871-28.722-31.282-19.834-75.601-12.635-104.209 18.732-31.679 34.734-32.089 85.938-.917 114.368 10.288 9.384 22.736 15.09 35.929 17.307-3.357-2.129-6.569-4.562-9.591-7.318z" fill="#e6975a"/></g><g><g><ellipse cx="347.355" cy="435.464" fill="#965028" rx="14.412" ry="17.091" transform="matrix(-.739 -.674 .674 -.739 310.54 991.277)"/></g><g><ellipse cx="415.484" cy="440.405" fill="#965028" rx="14.411" ry="17.091" transform="matrix(-.977 -.214 .214 -.977 727.116 959.508)"/></g><g><ellipse cx="386.225" cy="378.735" fill="#965028" rx="14.408" ry="17.087" transform="matrix(-.41 -.912 .912 -.41 199.156 886.292)"/></g></g></g></g></svg>