<svg height="512" viewBox="0 0 512 512" width="512" xmlns="http://www.w3.org/2000/svg"><g id="Fruits_Basket" data-name="Fruits Basket"><g id="Filled"><path d="m256 8c-128.13 0-232 103.87-232 232v136h32v-136c0-110.457 89.543-200 200-200 110.457 0 200 89.543 200 200v136h32v-136c0-128.13-103.87-232-232-232z" fill="#a1887f"/><path d="m328 256v-32a48 48 0 0 0 -48-48 48 48 0 0 0 -48 48v32l-20.655 30.983a67.542 67.542 0 0 0 -11.345 37.469 67.548 67.548 0 0 0 67.548 67.548h24.9a67.548 67.548 0 0 0 67.552-67.548 67.542 67.542 0 0 0 -11.345-37.469z" fill="#f8e868"/><path d="m352 120.323s-6.835 35.125-25.923 49.439-35.247 13-43.2 2.4-4.685-26.485 14.4-40.8 54.723-11.039 54.723-11.039z" fill="#81c784"/><path d="m360 324.452a67.542 67.542 0 0 0 -11.345-37.469l-20.655-30.983v-32a48.154 48.154 0 0 0 -1.107-10.244 121.089 121.089 0 0 1 -105.541 58.215l-10.007 15.012a67.542 67.542 0 0 0 -11.345 37.469 67.548 67.548 0 0 0 67.548 67.548h24.9a67.548 67.548 0 0 0 67.552-67.548z" fill="#f6e23d"/><circle cx="256" cy="208" fill="#fcf5be" r="16"/><circle cx="304" cy="136" fill="#c8e6c9" r="8"/><circle cx="280" cy="232" fill="#fcf5be" r="8"/><path d="m278.9 161.619a19.809 19.809 0 0 0 3.978 10.541c7.953 10.6 24.113 11.916 43.2-2.4 6.879-5.158 12.158-13.019 16.108-20.964-17.466 12.411-39.879 16.683-63.286 12.823z" fill="#66bb6a"/><circle cx="332" cy="132" fill="#c8e6c9" r="12"/><path d="m168 300.1c-37.588-32.984-80 6.788-80 55.457 0 49.4 42.986 89.187 80 56.58 36.617 32.1 80-7.338 80-56.58 0-48.908-42.6-88.335-80-55.457z" fill="#ea6049"/><path d="m93.215 195.714s5.262 33.945 22.935 47.2 33.115 11.4 41.067.8 5.405-25.945-12.269-39.2-51.733-8.8-51.733-8.8z" fill="#81c784"/><path d="m248 355.555c0-25.66-11.729-48.7-28.279-60.07-26.885 43.341-78.806 69.774-131.64 63.6 1.982 47.735 43.791 84.876 79.919 53.049 36.617 32.105 80-7.334 80-56.579z" fill="#de513e"/><path d="m424 324a27.981 27.981 0 0 0 -32.862-27.571 28.08 28.08 0 0 0 6.179-8.462 28 28 0 1 0 -26.634-39.934 28.012 28.012 0 0 0 -25.327 19.352 28.008 28.008 0 0 0 -37.971 37.971 27.992 27.992 0 0 0 -14.185 42.881 28 28 0 1 0 38.563 38.563 27.984 27.984 0 0 0 40-8 28 28 0 0 0 42.188-33.319 27.938 27.938 0 0 0 10.049-21.481z" fill="#f09b73"/><path d="m410.492 300.038a152.4 152.4 0 0 1 -121.87 51.775 27.991 27.991 0 1 0 43.141 34.987 27.984 27.984 0 0 0 40-8 28 28 0 0 0 42.188-33.319 28 28 0 0 0 -3.459-45.447z" fill="#e58b6c"/><path d="m155.938 215.43a75.821 75.821 0 0 1 -44.081 23.619 34.452 34.452 0 0 0 4.293 3.864c17.674 13.254 33.115 11.4 41.067.8 5.832-7.779 6.007-18.103-1.279-28.283z" fill="#66bb6a"/><circle cx="108" cy="212" fill="#c8e6c9" r="12"/><circle cx="136" cy="216" fill="#c8e6c9" r="8"/><circle cx="128" cy="312" fill="#f27c6d" r="16"/><circle cx="152" cy="336" fill="#f27c6d" r="8"/><circle cx="344" cy="296" fill="#f2bba5" r="16"/><circle cx="368" cy="320" fill="#f2bba5" r="8"/><path d="m403.669 61.058c-.8 6.675-7.871 18.357-16.474 27.987a199.533 199.533 0 0 1 68.805 150.955v136h32v-136a231.528 231.528 0 0 0 -84.331-178.942z" fill="#876559"/><circle cx="164" cy="44" fill="#bcaaa4" r="12"/><circle cx="136" cy="64" fill="#bcaaa4" r="8"/><path d="m24 408v48a48 48 0 0 0 48 48h368a48 48 0 0 0 48-48v-48z" fill="#a1887f"/><path d="m262.542 504h177.458a48 48 0 0 0 48-48v-48h-123.246a174.8 174.8 0 0 1 -102.212 96z" fill="#9c7b70"/><path d="m8 376h496v32h-496z" fill="#bcaaa4"/><path d="m504 376v32h-183.56c11.23-7.48 20-19.36 22.69-32z" fill="#a1887f"/><g fill="#e2dbd5"><circle cx="36" cy="392" r="12"/><circle cx="72" cy="392" r="8"/></g></g><g id="Outline"><path d="m504 368h-320a8 8 0 0 0 0 16h312v16h-480v-16h104a8 8 0 0 0 0-16h-112a8 8 0 0 0 -8 8v32a8 8 0 0 0 8 8h8v40a56.063 56.063 0 0 0 56 56h368a56.063 56.063 0 0 0 56-56v-40h8a8 8 0 0 0 8-8v-32a8 8 0 0 0 -8-8zm-28.578 48-16.346 23.9-18.5-23.9zm-120.139 0-14.569 24.688-14.568-24.688zm-168.429 0-14.568 24.688-14.568-24.688zm-118.854 0-14.758 20.6-13.904-20.6zm-36 17.729 11.3 16.751-10.3 14.383c-1.635-7.204-.74-10.357-1-31.134zm107.646 62.271h-36.691l12.7-21.918c5.59 7.366 6.679 14.417 13.584 14.417a8.011 8.011 0 0 0 6.738-12.3l-11.286-17.707 13.445-23.192a8 8 0 1 0 -13.843-8.024l-9.285 16.02-8.028-12.6a8 8 0 0 0 -13.492 8.6l12.484 19.586-21.51 37.118c-5.879-.939-27.674 4.636-43.488-14.79l11.877-16.582c8.393 10.9 9.3 17.735 16.228 17.735a8 8 0 0 0 6.621-12.475l-12.91-19.136 24.892-34.752h51.459l23.859 40.428zm18.578 0 14.062-23.83c3.859 5.234 4.984 12.475 11.936 12.475a8.009 8.009 0 0 0 6.882-12.067l-9.53-16.149 23.857-40.429h37.569l-14.568 24.688-5.039-8.54a8 8 0 0 0 -13.78 8.131l9.53 16.15-9.53 16.149a8.01 8.01 0 0 0 6.883 12.067c6.944 0 8.124-7.306 11.936-12.475l14.059 23.83zm98.276-7.741-18.783-31.83 23.857-40.429h37.565l-14.568 24.687-5.181-8.781a8 8 0 0 0 -13.78 8.131l9.673 16.391zm51.575 7.741h-37.566l14.062-23.83c3.857 5.23 4.985 12.475 11.937 12.475a8.009 8.009 0 0 0 6.882-12.067l-9.53-16.149 18.783-31.829 18.783 31.831zm74.72 0 14.062-23.83 14.062 23.83zm46.7 0-23.35-39.571 9.53-16.15a8 8 0 0 0 -13.78-8.131l-5.039 8.54-4.039-6.845a8 8 0 0 0 -13.779 8.131l8.53 14.455-23.35 39.571h-37.566l14.062-23.83c1.963 2.477 3.405 9.085 9.936 9.085a8.009 8.009 0 0 0 6.882-12.067l-7.532-12.759 23.86-40.429h46.48l29.244 37.778-14.184 20.744a8.011 8.011 0 0 0 6.6 12.518c7 0 7.946-7.025 17.883-19.967l11.046 14.27c-15.477 18.841-36.729 13.868-41.429 14.657zm49.364-30.542-9.491-12.258 10.632-15.55c-.262 16.166.685 20.311-1.14 27.808z"/><path d="m480 240v104a8 8 0 0 0 16 0v-104a239.764 239.764 0 0 0 -59.671-158.371 8 8 0 1 0 -12.017 10.562 223.78 223.78 0 0 1 55.688 147.809z"/><path d="m24 352a8 8 0 0 0 8-8v-104c0-177.954 198.1-283.849 345.745-188.059a8 8 0 1 0 8.709-13.421c-158.572-102.883-370.454 10.948-370.454 201.48v104a8 8 0 0 0 8 8z"/><path d="m456 352a8 8 0 0 0 8-8v-104c0-135.489-128.073-235.088-259.517-201.562a8 8 0 1 0 3.954 15.5c121.188-30.908 239.563 60.844 239.563 186.062v104a8 8 0 0 0 8 8z"/><path d="m152.393 78.321a8 8 0 0 0 -8.646-13.463 207.336 207.336 0 0 0 -95.747 175.142v104a8 8 0 0 0 16 0v-104a191.4 191.4 0 0 1 88.393-161.679z"/><path d="m320 224v8c-.1 10.183 16.094 10.278 16 0-.592-3.406 3.9-28.084-17.275-48.394a71.6 71.6 0 0 0 12.153-7.445c21.311-15.974 28.672-52.756 28.975-54.314a8.1 8.1 0 0 0 -7.122-9.493c-1.582-.144-38.942-3.368-60.249 12.605a68.6 68.6 0 0 0 -12.709 12.15c-9.77-23.683-46.582-51.192-60.964-56.6-10.023-3.769-14.889 11.463-5.632 14.975 20.1 7.626 57.781 42.421 58.5 73.137a56.085 56.085 0 0 0 -47.677 55.379v29.579l-3.348 5.025c-5.619 8.184 7.476 17.638 13.316 8.872 2.056-3.088 6.184-7.592 6.032-11.476v-32a40 40 0 0 1 80 0zm-17.921-86.238c10.215-7.658 27.766-9.617 39.7-9.772-3.488 11.415-10.282 27.714-20.5 35.372-8.774 6.587-26.805 6.415-30.457 5.7-9.843-9.625-1.67-21.608 11.257-31.3z"/><path d="m417.556 231.185c5.729-11.616 6.719-22.664 2.93-32.907-7.738-20.917-32.889-29.511-33.956-29.868a8 8 0 0 0 -5.081 15.172c.19.064 19.027 6.6 24.051 20.3 2.224 6.065 1.352 13.046-2.583 20.791a36.077 36.077 0 0 0 -37.2 15.886 36.081 36.081 0 0 0 -24.425 16.671c-26.817-7.149-51.187 17.47-44.07 44.067-26.38 16.384-17.282 54.823-4.111 54.948a8.008 8.008 0 0 0 6.5-12.776c-6.493-9.144-3.394-21.979 5.138-27.986a35.952 35.952 0 0 0 23.467 12.317c3 28.24 24.025 16.454 18.2 5.735a20 20 0 1 1 37.584-9.535 8 8 0 0 0 8 8c11.87 0 8.666-17.667 2.15-27.637.194-.152.374-.32.564-.476a8.017 8.017 0 0 0 1.286.113c20.588 0 28 27.556 9.067 37.364-6.805 3.529-14.644 3.174-20.453-.926a8 8 0 0 0 -11.149 1.92c-7.909 11.2 17.579 24.291 38.963 13.213 26.589-13.776 25.514-50.373.069-63.552 23.588-12.126 26.377-44.846 5.059-60.834zm-35.156 61.886a36.017 36.017 0 0 0 -52.3 18.829 20 20 0 1 1 6.08-39.464c-.115 1.172-.177 2.359-.177 3.56a8 8 0 0 0 16 0 20.023 20.023 0 0 1 20-20c20.036.004 27.683 26.498 10.397 37.075zm25.6-17.071a36.053 36.053 0 0 0 -22.126-33.216 19.987 19.987 0 0 1 22.126 33.216z"/><path d="m172.382 306.783c5.376-3.529 17.052-15.5 34.9-8.862 16.042 5.962 28.9 24.922 31.99 47.18a8 8 0 1 0 15.848-2.2c-6.465-46.524-46.576-78.129-83.64-55.3-11.967-32.517 2.412-73.608 18.711-93.546a8 8 0 0 0 -12.388-10.127 129.2 129.2 0 0 0 -15.691 26.417 59.029 59.029 0 0 0 -12.367-12.228c-20.045-15.041-56.045-10.535-57.568-10.336a8.093 8.093 0 0 0 -6.868 9.158c8.092 52.18 42.75 69.7 65.565 61.248a101.533 101.533 0 0 0 2.513 24.179c-34.428-11.416-66.808 19.662-72.5 60.53a8 8 0 1 0 15.842 2.204c5.039-36.147 36.233-65.107 65.994-38.993a7.988 7.988 0 0 0 9.659.676zm-51.432-70.27c-9.321-6.991-15.131-22.606-17.983-33.486 70.689-1.959 57.353 63.01 17.983 33.486z"/><circle cx="152" cy="376" r="8"/><circle cx="176" cy="56" r="8"/><circle cx="408" cy="64" r="8"/></g></g></svg>